 <?xml version="1.0" encoding="UTF-8" standalone="no"?>
<!DOCTYPE svg PUBLIC "-//W3C//DTD SVG 1.1//EN" "http://www.w3.org/Graphics/SVG/1.1/DTD/svg11.dtd">
<svg class="img-fluid" id="outputsvg" xmlns="http://www.w3.org/2000/svg" style="transform: matrix(0.856831, 0, 0, 0.856831, 0, 0); transform-origin: 50% 50% 0px; cursor: move; max-height: none; transition: none 0s ease 0s;" width="51.2" height="51.2" viewBox="0 0 5120 5120"><g id="l64iaHIilRtIWlVeRCvAEWG" fill="rgb(255,136,0)" style="transform: none;"><g><path id="pshijFYvR" d="M449 5110 c-227 -27 -414 -220 -440 -455 -6 -58 -8 -833 -7 -2160 3 -1914 5 -2074 20 -2118 75 -212 233 -344 441 -367 110 -13 4084 -13 4194 0 208 23 366 155 441 367 15 44 17 204 20 2118 1 1327 -1 2102 -7 2160 -27 242 -212 428 -454 455 -99 12 -4111 11 -4208 0z m1584 -944 c86 -36 136 -129 230 -426 59 -185 85 -283 158 -593 l23 -99 111 -73 c131 -88 232 -168 380 -304 92 -84 115 -101 142 -101 36 0 38 3 47 102 14 132 95 273 172 298 87 29 194 -14 312 -125 147 -139 276 -368 308 -547 6 -34 9 -38 38 -38 41 0 155 -25 236 -51 72 -23 256 -107 249 -114 -3 -2 -49 11 -104 30 -116 39 -217 61 -330 70 l-80 7 -18 -70 c-12 -47 -28 -82 -50 -106 l-32 -36 -45 21 c-71 32 -120 88 -120 137 0 28 34 67 76 87 l37 17 -6 77 c-12 172 -139 429 -254 517 -33 26 -48 29 -120 33 -79 3 -83 2 -108 -24 -41 -45 -50 -95 -50 -280 l0 -170 82 -166 c183 -368 355 -890 370 -1122 l6 -87 -34 0 c-47 1 -112 32 -136 66 -82 116 -242 550 -322 869 -38 155 -68 311 -76 405 -7 74 -8 76 -64 134 -68 70 -263 244 -346 307 -121 92 -166 119 -201 119 -31 0 -34 -3 -34 -28 0 -32 52 -286 76 -372 8 -30 49 -167 91 -304 72 -239 74 -250 57 -263 -39 -28 -120 -28 -142 0 -27 36 -181 627 -238 921 l-39 199 -60 45 c-33 25 -83 67 -111 93 -34 32 -69 53 -105 64 -72 23 -244 31 -306 16 -61 -16 -161 -65 -268 -133 -105 -66 -106 -74 -29 -203 116 -195 217 -467 315 -850 l51 -201 71 -37 c204 -105 400 -316 488 -524 25 -60 33 -97 37 -161 5 -99 -11 -152 -64 -203 -34 -33 -37 -34 -117 -34 -71 0 -90 5 -142 30 -76 38 -163 119 -213 198 -96 152 -138 264 -187 497 -15 69 -30 134 -35 146 -24 60 -409 92 -533 45 -36 -14 -37 -14 -37 4 0 32 69 84 143 107 63 20 91 23 226 21 l154 -1 -6 61 c-18 185 -186 727 -288 930 -23 43 -40 46 -127 21 -74 -22 -205 -15 -284 15 -112 43 -200 154 -184 232 21 105 140 153 277 113 73 -22 115 -44 194 -104 89 -68 105 -67 225 13 172 114 292 172 413 197 53 11 57 13 57 39 0 16 -21 72 -46 125 -59 124 -66 183 -34 287 36 122 94 200 174 235 40 17 59 17 99 0z m790 -2770 c74 -55 112 -170 69 -209 -17 -16 -21 -15 -64 12 -50 32 -90 79 -111 132 -16 38 -13 54 16 86 22 24 32 22 90 -21z"></path><path id="p14y0naLW7" d="M1891 4069 c-27 -29 -35 -88 -29 -217 4 -83 11 -122 31 -174 36 -93 100 -200 161 -269 28 -32 65 -76 81 -98 24 -32 36 -40 63 -41 31 0 32 2 32 38 0 76 -109 508 -166 660 -38 100 -57 122 -109 122 -32 0 -50 -6 -64 -21z"></path><path id="p5bZH9ZPI" d="M838 3299 c-26 -15 -25 -100 1 -123 33 -30 92 -45 178 -46 103 0 113 4 113 45 0 27 -8 39 -37 63 -71 56 -209 89 -255 61z"></path><path id="pxfGhK4cK" d="M1843 1638 c5 -65 65 -283 94 -347 29 -63 73 -121 115 -152 33 -23 51 -29 94 -29 66 0 74 12 74 108 0 131 -56 249 -171 363 -79 78 -141 119 -180 119 l-32 0 6 -62z"></path></g></g><g id="l5URKae9Tf3afNPet9xlnnc" fill="rgb(0,0,0)" style="transform: none;"><g><path id="pp2jkO2bJ" d="M1904 4196 c-119 -52 -201 -219 -192 -394 4 -78 9 -97 50 -184 l46 -97 -56 -12 c-120 -24 -225 -74 -403 -191 l-107 -69 -67 51 c-117 88 -202 120 -324 120 -133 0 -201 -52 -209 -161 -5 -72 11 -121 56 -171 73 -81 177 -118 332 -119 55 0 115 6 143 15 l48 14 18 -36 c37 -73 95 -220 143 -362 43 -129 125 -433 142 -531 l6 -36 -122 4 c-188 7 -330 -30 -380 -99 -28 -40 -39 -138 -15 -138 9 0 19 4 22 10 3 5 36 19 73 30 83 26 233 28 346 5 105 -22 125 -30 131 -57 2 -13 16 -77 30 -143 36 -165 71 -277 112 -359 117 -232 240 -341 412 -366 121 -17 196 13 238 95 22 41 33 156 22 233 -33 230 -269 526 -526 659 l-71 37 -51 201 c-97 379 -196 649 -311 842 l-57 97 76 49 c98 65 213 122 274 138 58 14 170 7 246 -16 37 -11 70 -32 105 -64 28 -26 78 -68 111 -93 l60 -45 39 -199 c57 -293 210 -885 238 -921 5 -7 34 -17 64 -23 60 -13 104 -4 147 30 l25 20 -29 92 c-92 291 -163 541 -189 664 -16 76 -32 149 -35 162 -5 21 -4 22 17 11 83 -44 378 -289 499 -415 56 -58 57 -60 64 -134 8 -94 38 -250 76 -405 91 -366 274 -838 347 -895 37 -29 127 -53 169 -45 l36 6 -6 117 c-11 250 -173 754 -370 1151 l-82 166 0 140 c0 154 11 207 51 250 23 25 30 27 78 23 38 -3 63 -12 89 -32 46 -35 120 -132 157 -206 39 -77 88 -220 96 -280 6 -43 4 -51 -12 -56 -42 -15 -84 -56 -95 -93 -14 -47 -1 -96 39 -143 31 -37 114 -78 159 -78 45 0 87 54 110 140 l17 67 45 -4 c92 -8 208 -35 306 -70 131 -46 160 -50 173 -26 20 37 -4 62 -100 108 -136 64 -309 114 -394 115 -29 0 -32 4 -38 38 -20 112 -93 276 -179 400 -64 94 -191 213 -265 249 -65 32 -176 43 -236 23 -80 -26 -161 -170 -173 -310 -3 -36 -9 -70 -12 -77 -4 -8 -45 23 -116 88 -148 136 -249 217 -380 304 l-111 73 -23 99 c-73 310 -99 408 -158 593 -94 297 -144 390 -230 426 -41 18 -119 17 -159 0z m86 -165 c42 -60 105 -261 171 -544 21 -93 39 -174 39 -180 0 -5 -15 10 -32 33 -18 23 -56 67 -84 99 -62 70 -126 177 -160 269 -44 114 -45 285 -3 331 27 28 44 27 69 -8z m-1026 -772 c73 -26 144 -78 124 -90 -20 -13 -119 -10 -161 5 -70 25 -99 72 -59 95 24 14 28 14 96 -10z m1055 -1708 c31 -31 74 -83 95 -115 63 -96 93 -225 66 -277 -33 -60 -153 31 -213 162 -18 40 -81 252 -93 313 l-7 39 47 -33 c26 -17 73 -57 105 -89z"></path><path id="pZgXRxuSS" d="M2701 1446 c-28 -29 -37 -83 -22 -129 40 -119 191 -218 244 -159 13 14 17 37 17 89 0 61 -4 75 -31 116 -37 56 -110 107 -154 107 -20 0 -39 -8 -54 -24z"></path></g></g></svg> 
